<svg width="48" height="48" viewBox="0 0 48 48" fill="none" xmlns="http://www.w3.org/2000/svg">
<g id="box 1" clip-path="url(#clip0_87_22464)">
<path id="Vector" d="M23.5392 0.605343L2.04531 10.9817C2.04531 10.9817 2.0453 10.9818 2.0453 10.9818C1.94861 11.0284 1.88721 11.1263 1.88721 11.2337V36.7663C1.88721 36.8736 1.94864 36.9715 2.04537 37.0182L23.5393 47.3946L23.3219 47.8449L23.5393 47.3946C23.8303 47.5351 24.1695 47.5351 24.4605 47.3946L24.6779 47.8449L24.4605 47.3946L45.9545 37.0182C46.0512 36.9715 46.1126 36.8737 46.1126 36.7663V11.2337C46.1126 11.1264 46.0512 11.0285 45.9545 10.9818L23.5392 0.605343ZM23.5392 0.605343C23.8302 0.464895 24.1695 0.464886 24.4605 0.605315C24.4605 0.605324 24.4606 0.605334 24.4606 0.605343L45.9544 10.9817L23.5392 0.605343Z" fill="#FFDA8F" stroke="#422C77"/>
<path id="Vector_2" d="M24.25 47.3838L2.16715 36.9298C2.16712 36.9298 2.1671 36.9298 2.16708 36.9298C2.06106 36.8795 2 36.7781 2 36.6737V11.2268L24.25 21.76V47.3838Z" fill="#FFC350" stroke="#422C77"/>
<path id="Vector_3" d="M24.5 47.3754V21.9744L46.1127 11.5406V36.7661C46.1127 36.8734 46.0513 36.9713 45.9545 37.0181L24.5 47.3754Z" fill="#FFD164" stroke="#422C77"/>
<path id="Vector_4" d="M7.81949 35.405C7.70606 35.405 7.59028 35.3799 7.48143 35.3274L4.16296 33.7253C3.77465 33.538 3.61246 33.072 3.79978 32.6844C3.98634 32.2968 4.45387 32.1354 4.84068 32.3212L8.15915 33.9234C8.54746 34.1107 8.70965 34.5767 8.52234 34.9643C8.38837 35.2428 8.10965 35.405 7.81949 35.405Z" fill="#FFE17D"/>
<path id="Vector_5" d="M10.8738 33.4169C10.7603 33.4169 10.6446 33.3918 10.5357 33.3393L4.16747 30.2652C3.77991 30.0779 3.61697 29.6119 3.80429 29.2243C3.99085 28.8375 4.45913 28.6753 4.84519 28.8611L11.2133 31.9352C11.6009 32.1225 11.7638 32.5885 11.5765 32.9761C11.4427 33.2546 11.1639 33.4169 10.8738 33.4169Z" fill="#FFF6D8"/>
<g id="Union">
<mask id="path-6-inside-1_87_22464" fill="white">
<path fill-rule="evenodd" clip-rule="evenodd" d="M16.302 3.57227L38.8641 14.4719L38.8553 14.477L38.864 14.4727V23.1142C38.864 23.4134 38.6929 23.6862 38.4233 23.8163L33.5266 26.1803C33.2676 26.3052 32.9672 26.1166 32.9672 25.8292V17.4266L10.3545 6.45508L16.302 3.57227Z"/>
</mask>
<path fill-rule="evenodd" clip-rule="evenodd" d="M16.302 3.57227L38.8641 14.4719L38.8553 14.477L38.864 14.4727V23.1142C38.864 23.4134 38.6929 23.6862 38.4233 23.8163L33.5266 26.1803C33.2676 26.3052 32.9672 26.1166 32.9672 25.8292V17.4266L10.3545 6.45508L16.302 3.57227Z" fill="#E6646E"/>
<path d="M38.8641 14.4719L39.3621 15.3391L41.0048 14.3955L39.2991 13.5715L38.8641 14.4719ZM16.302 3.57227L16.737 2.67183L16.3013 2.46134L15.8658 2.6724L16.302 3.57227ZM38.8553 14.477L38.3572 13.6098L39.2965 15.3743L38.8553 14.477ZM38.864 14.4727H39.864V12.8665L38.4228 13.5753L38.864 14.4727ZM38.4233 23.8163L38.8581 24.7169L38.8581 24.7169L38.4233 23.8163ZM33.5266 26.1803L33.9612 27.0809L33.9613 27.0808L33.5266 26.1803ZM32.9672 17.4266H33.9672V16.8003L33.4037 16.5269L32.9672 17.4266ZM10.3545 6.45508L9.91832 5.55522L8.06275 6.45463L9.91797 7.35477L10.3545 6.45508ZM39.2991 13.5715L16.737 2.67183L15.867 4.4727L38.4291 15.3724L39.2991 13.5715ZM39.3533 15.3441L39.3621 15.3391L38.366 13.6048L38.3572 13.6098L39.3533 15.3441ZM38.4228 13.5753L38.414 13.5796L39.2965 15.3743L39.3053 15.37L38.4228 13.5753ZM39.864 23.1142V14.4727H37.864V23.1142H39.864ZM38.8581 24.7169C39.4733 24.4199 39.864 23.7971 39.864 23.1142H37.864C37.864 23.0297 37.9124 22.9526 37.9886 22.9158L38.8581 24.7169ZM33.9613 27.0808L38.8581 24.7169L37.9886 22.9158L33.0918 25.2797L33.9613 27.0808ZM31.9672 25.8292C31.9672 26.854 33.0384 27.5262 33.9612 27.0809L33.0919 25.2797C33.4968 25.0842 33.9672 25.3792 33.9672 25.8292H31.9672ZM31.9672 17.4266V25.8292H33.9672V17.4266H31.9672ZM9.91797 7.35477L32.5306 18.3263L33.4037 16.5269L10.791 5.55539L9.91797 7.35477ZM15.8658 2.6724L9.91832 5.55522L10.7907 7.35494L16.7382 4.47213L15.8658 2.6724Z" fill="#422C77" mask="url(#path-6-inside-1_87_22464)"/>
</g>
</g>
<defs>
<clipPath id="clip0_87_22464">
<rect width="48" height="48" fill="white"/>
</clipPath>
</defs>
</svg>
