<svg width="100" height="100" viewBox="0 0 100 100" fill="none" xmlns="http://www.w3.org/2000/svg">
<path d="M97.125 96.1667C96.7416 96.7052 96.2356 97.1447 95.6487 97.449C95.0619 97.7533 94.411 97.9136 93.75 97.9167H6.25C5.58896 97.9136 4.93813 97.7533 4.35128 97.449C3.76443 97.1447 3.2584 96.7052 2.875 96.1667C19.3333 59.5625 15.9167 67.1667 20.8333 56.25H79.1667C84.4583 68.0208 80.5417 59.3333 97.125 96.1667Z" fill="#4795EA"/>
<path d="M20.8333 29.167V56.2503C15.5417 68.0212 19.4583 59.3337 2.87501 96.167C2.3525 95.4704 2.07424 94.621 2.08335 93.7503V64.5837L20.8333 29.167Z" fill="url(#paint0_linear_6600_59437)"/>
<path d="M97.9167 64.5837V93.7503C97.9258 94.621 97.6475 95.4704 97.125 96.167C80.6667 59.5628 84.0834 67.167 79.1667 56.2503V29.167L97.9167 64.5837Z" fill="url(#paint1_linear_6600_59437)"/>
<path d="M97.9167 64.5831V93.7498C97.9167 94.8549 97.4777 95.9147 96.6963 96.6961C95.9149 97.4775 94.8551 97.9165 93.75 97.9165H6.25004C5.14497 97.9165 4.08516 97.4775 3.30376 96.6961C2.52236 95.9147 2.08337 94.8549 2.08337 93.7498V64.5831H37.6875C38.19 64.5775 38.6775 64.7536 39.0604 65.079C39.4432 65.4044 39.6955 65.8572 39.7709 66.354C40.0921 68.2389 40.9259 69.999 42.181 71.4415C43.4361 72.884 45.0641 73.9532 46.8864 74.532C48.7088 75.1108 50.6554 75.1768 52.5128 74.7228C54.3702 74.2688 56.0668 73.3123 57.4167 71.9581C58.9314 70.4295 59.9419 68.4738 60.3125 66.354C60.3879 65.8572 60.6402 65.4044 61.0231 65.079C61.4059 64.7536 61.8935 64.5775 62.3959 64.5831H97.9167Z" fill="url(#paint2_linear_6600_59437)"/>
<path d="M20.8334 29.167H79.1667V56.2503H20.8334V29.167Z" fill="url(#paint3_linear_6600_59437)"/>
<path d="M68.75 20.8336C68.7547 17.264 67.7405 13.7673 65.8264 10.7543C63.9122 7.74132 61.1778 5.33733 57.9445 3.82488C54.7112 2.31242 51.1133 1.75434 47.5738 2.21624C44.0342 2.67814 40.7 4.14082 37.9631 6.43237C35.2262 8.72391 33.2003 11.7491 32.1235 15.1524C31.0467 18.5557 30.9637 22.1956 31.8843 25.6444C32.805 29.0932 34.6909 32.2076 37.3206 34.6215C39.9502 37.0353 43.2143 38.6484 46.7292 39.2711L49.0625 43.9794C49.1531 44.1494 49.2882 44.2915 49.4533 44.3905C49.6185 44.4896 49.8074 44.5419 50 44.5419C50.1926 44.5419 50.3815 44.4896 50.5466 44.3905C50.7118 44.2915 50.8469 44.1494 50.9375 43.9794L53.2708 39.2711C57.6046 38.5033 61.5302 36.2355 64.3602 32.8646C67.1901 29.4938 68.7441 25.2349 68.75 20.8336Z" fill="url(#paint4_linear_6600_59437)"/>
<path d="M52.9375 20.834L57.7292 16.0632C58.1215 15.6709 58.3419 15.1388 58.3419 14.584C58.3419 14.0293 58.1215 13.4972 57.7292 13.1049C57.3369 12.7126 56.8048 12.4922 56.25 12.4922C55.6952 12.4922 55.1631 12.7126 54.7708 13.1049L50 17.8965L45.2292 13.1049C45.0349 12.9106 44.8043 12.7565 44.5505 12.6514C44.2967 12.5463 44.0247 12.4922 43.75 12.4922C43.1952 12.4922 42.6631 12.7126 42.2708 13.1049C41.8785 13.4972 41.6581 14.0293 41.6581 14.584C41.6581 15.1388 41.8785 15.6709 42.2708 16.0632L47.0625 20.834L42.2708 25.6049C42.0766 25.7991 41.9225 26.0297 41.8174 26.2835C41.7122 26.5373 41.6581 26.8093 41.6581 27.084C41.6581 27.6388 41.8785 28.1709 42.2708 28.5632C42.6631 28.9555 43.1952 29.1759 43.75 29.1759C44.0247 29.1759 44.2967 29.1218 44.5505 29.0167C44.8043 28.9115 45.0349 28.7575 45.2292 28.5632L50 23.7715L54.7708 28.5632C55.1631 28.9555 55.6952 29.1759 56.25 29.1759C56.8048 29.1759 57.3369 28.9555 57.7292 28.5632C58.1215 28.1709 58.3419 27.6388 58.3419 27.084C58.3419 26.5292 58.1215 25.9972 57.7292 25.6049L52.9375 20.834Z" fill="#FFB369"/>
<path d="M22.9167 79.167H10.4167C9.26611 79.167 8.33337 80.0997 8.33337 81.2503V89.5837C8.33337 90.7343 9.26611 91.667 10.4167 91.667H22.9167C24.0673 91.667 25 90.7343 25 89.5837V81.2503C25 80.0997 24.0673 79.167 22.9167 79.167Z" fill="url(#paint5_linear_6600_59437)"/>
<path d="M18.75 87.5007H14.5833C14.0308 87.5007 13.5009 87.2812 13.1102 86.8905C12.7195 86.4998 12.5 85.9699 12.5 85.4173C12.5 84.8648 12.7195 84.3349 13.1102 83.9442C13.5009 83.5535 14.0308 83.334 14.5833 83.334H18.75C19.3025 83.334 19.8324 83.5535 20.2231 83.9442C20.6138 84.3349 20.8333 84.8648 20.8333 85.4173C20.8333 85.9699 20.6138 86.4998 20.2231 86.8905C19.8324 87.2812 19.3025 87.5007 18.75 87.5007Z" fill="#FFB369"/>
<path d="M35.4167 91.6667H31.25C30.6975 91.6667 30.1676 91.4472 29.7769 91.0565C29.3862 90.6658 29.1667 90.1359 29.1667 89.5833C29.1667 89.0308 29.3862 88.5009 29.7769 88.1102C30.1676 87.7195 30.6975 87.5 31.25 87.5H35.4167C35.9692 87.5 36.4991 87.7195 36.8898 88.1102C37.2805 88.5009 37.5 89.0308 37.5 89.5833C37.5 90.1359 37.2805 90.6658 36.8898 91.0565C36.4991 91.4472 35.9692 91.6667 35.4167 91.6667Z" fill="#4795EA"/>
<path d="M39.5834 83.3337H31.25C30.6975 83.3337 30.1676 83.1142 29.7769 82.7235C29.3862 82.3328 29.1667 81.8029 29.1667 81.2503C29.1667 80.6978 29.3862 80.1679 29.7769 79.7772C30.1676 79.3865 30.6975 79.167 31.25 79.167H39.5834C40.1359 79.167 40.6658 79.3865 41.0565 79.7772C41.4472 80.1679 41.6667 80.6978 41.6667 81.2503C41.6667 81.8029 41.4472 82.3328 41.0565 82.7235C40.6658 83.1142 40.1359 83.3337 39.5834 83.3337Z" fill="#4795EA"/>
<defs>
<linearGradient id="paint0_linear_6600_59437" x1="11.4583" y1="96.167" x2="11.4583" y2="29.167" gradientUnits="userSpaceOnUse">
<stop stop-color="#54A5FF"/>
<stop offset="1" stop-color="#8AD3FE"/>
</linearGradient>
<linearGradient id="paint1_linear_6600_59437" x1="88.5417" y1="96.167" x2="88.5417" y2="0.0003288" gradientUnits="userSpaceOnUse">
<stop stop-color="#54A5FF"/>
<stop offset="1" stop-color="#8AD3FE"/>
</linearGradient>
<linearGradient id="paint2_linear_6600_59437" x1="50" y1="97.9165" x2="50" y2="64.5831" gradientUnits="userSpaceOnUse">
<stop stop-color="#54A5FF"/>
<stop offset="1" stop-color="#8AD3FE"/>
</linearGradient>
<linearGradient id="paint3_linear_6600_59437" x1="50" y1="56.2503" x2="50" y2="0.000326126" gradientUnits="userSpaceOnUse">
<stop stop-color="#54A5FF"/>
<stop offset="1" stop-color="#8AD3FE"/>
</linearGradient>
<linearGradient id="paint4_linear_6600_59437" x1="50" y1="44.5419" x2="50" y2="2.08361" gradientUnits="userSpaceOnUse">
<stop stop-color="#D3E6F5"/>
<stop offset="1" stop-color="#F0F7FC"/>
</linearGradient>
<linearGradient id="paint5_linear_6600_59437" x1="8.33337" y1="85.417" x2="25" y2="85.417" gradientUnits="userSpaceOnUse">
<stop stop-color="#D3E6F5"/>
<stop offset="1" stop-color="#F0F7FC"/>
</linearGradient>
</defs>
</svg>
