<svg width="20" height="20" viewBox="0 0 20 20" fill="none" xmlns="http://www.w3.org/2000/svg">
<g clip-path="url(#clip0_30_1600)">
<path d="M15.8332 18.3333H4.1665C3.50346 18.3333 2.86758 18.0699 2.39874 17.6011C1.9299 17.1322 1.6665 16.4964 1.6665 15.8333V2.49999C1.6665 2.27898 1.7543 2.06701 1.91058 1.91073C2.06686 1.75445 2.27882 1.66666 2.49984 1.66666H14.1665C14.3875 1.66666 14.5995 1.75445 14.7558 1.91073C14.912 2.06701 14.9998 2.27898 14.9998 2.49999V12.5H18.3332V15.8333C18.3332 16.4964 18.0698 17.1322 17.6009 17.6011C17.1321 18.0699 16.4962 18.3333 15.8332 18.3333ZM14.9998 14.1667V15.8333C14.9998 16.0543 15.0876 16.2663 15.2439 16.4226C15.4002 16.5789 15.6122 16.6667 15.8332 16.6667C16.0542 16.6667 16.2661 16.5789 16.4224 16.4226C16.5787 16.2663 16.6665 16.0543 16.6665 15.8333V14.1667H14.9998ZM4.99984 5.83332V7.49999H11.6665V5.83332H4.99984ZM4.99984 9.16666V10.8333H11.6665V9.16666H4.99984ZM4.99984 12.5V14.1667H9.1665V12.5H4.99984Z" fill="#F46161"/>
</g>
<defs>
<clipPath id="clip0_30_1600">
<rect width="20" height="20" fill="white"/>
</clipPath>
</defs>
</svg>
