<svg width="66" height="66" viewBox="0 0 66 66" fill="none" xmlns="http://www.w3.org/2000/svg">
<g id="trade 2">
<g id="Importing">
<path id="Vector" d="M53.2695 12.5614L53.2709 12.5622C54.0102 12.993 54.6237 13.61 55.0504 14.3516C55.4771 15.0933 55.7021 15.9338 55.703 16.7895V28.6486C55.703 29.0088 55.6191 29.3641 55.458 29.6863C55.2975 30.0073 55.0648 30.2866 54.7781 30.5024L54.7301 30.536L54.73 30.5359L54.7233 30.541C54.6678 30.5826 54.6099 30.6209 54.5499 30.6558L54.5499 30.6558L54.5458 30.6582C54.5332 30.6659 54.5201 30.6726 54.5066 30.6785L54.4893 30.6861L54.4733 30.6961L53.2771 31.4433L53.3658 31.0886L52.708 31.7456C52.5626 31.8908 52.3991 32.0168 52.2216 32.1203C51.8697 32.3254 51.4697 32.4335 51.0623 32.4335C50.655 32.4335 50.255 32.3254 49.9031 32.1203L49.9024 32.1199L43.9443 28.673L43.735 28.5519L43.6008 28.753L42.6126 30.2341L40.931 31.3042L42.9686 28.429L43.132 28.1983L42.8873 28.0568L33.1291 22.4133L33.1289 22.4132C32.3846 21.9835 31.7665 21.3655 31.3366 20.6213C30.9067 19.8772 30.6802 19.0331 30.6797 18.1737C30.6797 18.1737 30.6797 18.1736 30.6797 18.1736L30.6797 6.12097V6.12095C30.6797 5.73111 30.7779 5.34755 30.9652 5.00568C31.1525 4.66399 31.4228 4.37496 31.7512 4.16526C31.7513 4.16515 31.7515 4.16504 31.7517 4.16493L31.8486 4.10371L31.8489 4.1035L34.0655 2.69885L34.164 2.63728C34.5158 2.43506 34.9145 2.32861 35.3203 2.32861C35.7272 2.32861 36.1269 2.4356 36.4794 2.63884C36.4797 2.63905 36.4801 2.63926 36.4805 2.63948L53.2695 12.5614Z" fill="#389DD0" stroke="#422C77" stroke-width="0.515625"/>
<path id="Vector_2" d="M33.1292 22.413L33.1289 22.4128C32.3846 21.9831 31.7665 21.3651 31.3366 20.621C30.9067 19.8768 30.6802 19.0327 30.6797 18.1734C30.6797 18.1733 30.6797 18.1733 30.6797 18.1732L30.6797 6.12114C30.6813 5.73305 30.7802 5.35155 30.9674 5.01158C31.1546 4.67164 31.4241 4.38408 31.7512 4.17522L31.8442 4.11648C32.1958 3.91445 32.5944 3.80811 33 3.80811C33.4069 3.80811 33.8066 3.91511 34.1591 4.11837C34.1595 4.11857 34.1598 4.11877 34.1602 4.11897L50.9645 14.0382C50.9646 14.0382 50.9646 14.0382 50.9647 14.0382C51.6963 14.4715 52.3025 15.0877 52.7238 15.8263C53.145 16.5649 53.3668 17.4004 53.3672 18.2507C53.3672 18.2507 53.3672 18.2508 53.3672 18.2508L53.3672 30.1092C53.3672 30.1094 53.3672 30.1095 53.3672 30.1097C53.3657 30.5148 53.2582 30.9124 53.0553 31.2631C52.8524 31.6138 52.5611 31.9054 52.2105 32.1086C51.8599 32.3118 51.4622 32.4197 51.0569 32.4214C50.652 32.4232 50.2536 32.3189 49.9014 32.119C49.9012 32.1189 49.9009 32.1187 49.9006 32.1186L42.877 28.0564L42.6731 27.9385L42.5373 28.1309L40.2188 31.4146V26.6683V26.5197L40.0902 26.4452L33.1292 22.413Z" fill="#FFDA8F" stroke="#422C77" stroke-width="0.515625"/>
<path id="Vector_3" d="M44.0859 19.5783V19.7286L44.2167 19.8026L47.9569 21.9205L42.1344 25.414L37.7285 16.1383L40.6002 17.8881L40.9922 18.1269V17.6679V10.7568L44.0859 12.5246V19.5783Z" fill="#B8841C" stroke="#422C77" stroke-width="0.515625"/>
<path id="Vector_4" d="M33.6475 34.2562L39.6916 37.6409L25.5287 45.592L19.7278 42.061L19.7186 42.0555L19.709 42.0507L17.6503 41.0213L11.8776 37.8944L26.0386 29.9443L31.8408 33.2238L31.8419 33.2244L33.6455 34.2551L33.6475 34.2562Z" fill="#FFDA8F" stroke="#422C77" stroke-width="0.515625"/>
<path id="Vector_5" d="M25.7812 46.0416L39.9609 38.081V54.2498L30.2927 59.8472L25.7812 62.4591V46.0416Z" fill="#85273D" stroke="#422C77" stroke-width="0.515625"/>
<path id="Vector_6" d="M17.4085 41.4767L17.4084 41.4768L17.416 41.4806L19.4689 42.5071L25.2656 46.0355V62.458L11.6016 54.508V38.3313L17.4085 41.4767Z" fill="#618FE8" stroke="#422C77" stroke-width="0.515625"/>
<path id="Vector_7" d="M45.5049 50.2395L48.7116 52.0719L39.7066 56.9394L36.2217 54.948L34.4193 53.9181L30.9572 51.8409L40.2106 47.2142L43.7002 49.2082L45.5049 50.2395Z" fill="#FFDA8F" stroke="#422C77" stroke-width="0.515625"/>
<path id="Vector_8" d="M39.9609 57.3881L48.9844 52.5105V59.9202L39.9609 65.0416V57.3881Z" fill="#85273D" stroke="#422C77" stroke-width="0.515625"/>
<path id="Vector_9" d="M34.1564 54.3617L34.1564 54.3617L34.1612 54.3645L35.9658 55.3957L39.4453 57.384V65.0355L30.6797 59.9222V52.2757L34.1564 54.3617Z" fill="#618FE8" stroke="#422C77" stroke-width="0.515625"/>
<path id="Vector_10" d="M13.4062 43.94V41.4475L15.4688 42.685V45.1775L13.4062 43.94Z" fill="#ECFFD7" stroke="#422C77" stroke-width="0.515625"/>
<path id="Vector_11" d="M31.9688 56.4025V54.6033L33.2578 55.4006V57.2017L31.9688 56.4025Z" fill="#ECFFD7" stroke="#422C77" stroke-width="0.515625"/>
<g id="Group">
<path id="Vector_12" d="M19.5845 41.9884L18.0774 41.2348L31.9688 33.2969L33.2573 34.0333L19.5845 41.9884Z" fill="#85273D" stroke="#422C77" stroke-width="0.515625"/>
<path id="Vector_13" d="M36.0972 54.8769L34.8197 54.1469L43.8246 49.2793L45.1022 50.0094L36.0972 54.8769Z" fill="#85273D" stroke="#422C77" stroke-width="0.515625"/>
</g>
</g>
</g>
</svg>
