<svg width="66" height="66" viewBox="0 0 66 66" fill="none" xmlns="http://www.w3.org/2000/svg">
<g id="shipped 2">
<path id="Vector" d="M46.2274 13.1587H6.54466C5.93596 13.1587 5.44238 13.6523 5.44238 14.261V37.4092H8.74921C9.96673 37.4092 10.9538 38.3961 10.9538 39.6137C10.9538 40.8313 9.96661 41.8183 8.74921 41.8183H5.44238V45.1251C5.44238 45.7338 5.93596 46.2274 6.54466 46.2274H47.3297V14.261C47.3297 13.6523 46.8361 13.1587 46.2274 13.1587Z" fill="#B4E66E"/>
<path id="Vector_2" d="M60.5572 30.7954H47.3296V46.2276H64.9663V35.2045C64.9663 32.7695 62.9922 30.7954 60.5572 30.7954Z" fill="#FFDC64"/>
<path id="Vector_3" d="M47.3296 34.1025H59.2712C60.4889 34.1025 61.4758 35.0894 61.4758 36.3071V46.2277H47.3296V34.1025Z" fill="#FFC850"/>
<path id="Vector_4" d="M56.1479 17.5674H47.3296V21.9766H59.4549V20.8743C59.4549 19.0479 57.9743 17.5674 56.1479 17.5674Z" fill="#FFDC64"/>
<path id="Vector_5" d="M60.5572 30.7959L58.3525 21.9775H47.3296V30.7959H60.5572Z" fill="#B4E6FF"/>
<path id="Vector_6" d="M60.5576 35.2046H64.9669V39.6138H62.7623C61.5447 39.6138 60.5577 38.6269 60.5577 37.4093V35.2046H60.5576Z" fill="#F1F4FB"/>
<path id="Vector_7" d="M55.0457 38.5117C51.7235 38.5117 48.8332 40.3506 47.3296 43.0643V46.2278H63.7878C63.2442 41.8789 59.5418 38.5117 55.0457 38.5117Z" fill="#E1A546"/>
<path id="Vector_8" d="M61.4761 41.3032V46.2277H63.7883C63.5516 44.3342 62.7154 42.6276 61.4761 41.3032Z" fill="#FFC850"/>
<path id="Vector_9" d="M55.0462 52.8409C58.0901 52.8409 60.5577 50.3733 60.5577 47.3294C60.5577 44.2855 58.0901 41.8179 55.0462 41.8179C52.0023 41.8179 49.5347 44.2855 49.5347 47.3294C49.5347 50.3733 52.0023 52.8409 55.0462 52.8409Z" fill="#5B5D6E"/>
<path id="Vector_10" d="M51.7392 25.2844H59.1797L58.353 21.9775H47.3301V30.7959H50.6369V26.3866C50.6368 25.778 51.1304 25.2844 51.7392 25.2844Z" fill="#9BD6FF"/>
<path id="Vector_11" d="M18.67 38.5117C15.8865 38.5117 13.4081 39.8044 11.7922 41.8185H8.74934H5.44238V45.1254C5.44238 45.7341 5.93596 46.2277 6.54466 46.2277H47.3297V41.8184H25.5478C23.9318 39.8044 21.4534 38.5117 18.67 38.5117Z" fill="#A0D755"/>
<path id="Vector_12" d="M18.6702 52.8409C21.7141 52.8409 24.1817 50.3733 24.1817 47.3294C24.1817 44.2855 21.7141 41.8179 18.6702 41.8179C15.6263 41.8179 13.1587 44.2855 13.1587 47.3294C13.1587 50.3733 15.6263 52.8409 18.6702 52.8409Z" fill="#5B5D6E"/>
<path id="Vector_13" d="M61.3797 29.824L59.6706 22.9874C60.1379 22.8882 60.4885 22.4736 60.4885 21.9769V20.8746C60.4885 18.4814 58.5414 16.5344 56.1482 16.5344H48.3633V14.2607C48.3633 13.083 47.4053 12.125 46.2276 12.125H6.54483C5.36714 12.125 4.40911 13.083 4.40911 14.2607V32.9998C4.40911 33.5705 4.87175 34.0333 5.44255 34.0333C6.01335 34.0333 6.47599 33.5706 6.47599 32.9998V14.2607C6.47599 14.2227 6.5068 14.1919 6.54483 14.1919H46.2275C46.2655 14.1919 46.2963 14.2227 46.2963 14.2607V33.0001C46.2963 33.5707 46.7589 34.0335 47.3297 34.0335C47.9004 34.0335 48.3632 33.5709 48.3632 33.0001V31.8286H60.5537L60.5564 31.8288L60.5593 31.8287C62.0593 31.8296 63.3331 32.8143 63.7706 34.1711H60.5572C59.9865 34.1711 59.5238 34.6337 59.5238 35.2045V37.4091C59.5238 39.1945 60.9763 40.6471 62.7617 40.6471H63.933V45.194H61.2309C60.3432 42.631 57.9067 40.7847 55.0457 40.7847C52.1846 40.7847 49.748 42.6309 48.8605 45.194H48.3629V37.4091C48.3629 36.8384 47.9003 36.3756 47.3295 36.3756C46.7588 36.3756 46.296 36.8383 46.296 37.4091V45.1938H24.8553C23.9677 42.6308 21.5312 40.7846 18.6701 40.7846C15.8091 40.7846 13.3725 42.6308 12.485 45.1938H6.54483C6.5068 45.1938 6.47599 45.163 6.47599 45.125V42.8515H10.9541C11.5247 42.8515 11.9875 42.3888 11.9875 41.818C11.9875 41.2474 11.5249 40.7846 10.9541 40.7846H1.03344C0.462773 40.7846 0 41.2472 0 41.818C0 42.3887 0.462645 42.8515 1.03344 42.8515H4.40924V45.125C4.40924 46.3027 5.36727 47.2607 6.54496 47.2607H12.1271C12.1269 47.2837 12.1253 47.3065 12.1253 47.3296C12.1253 50.9384 15.0614 53.8744 18.6701 53.8744C22.2789 53.8744 25.215 50.9384 25.215 47.3296C25.215 47.3064 25.2134 47.2837 25.2132 47.2607H48.5027C48.5024 47.2837 48.5008 47.3065 48.5008 47.3296C48.5008 50.9384 51.4369 53.8744 55.0457 53.8744C58.6544 53.8744 61.5905 50.9384 61.5905 47.3296C61.5905 47.3064 61.589 47.2837 61.5887 47.2607H64.9664C65.5371 47.2607 65.9999 46.7981 65.9999 46.2273V35.2042C66 32.4829 63.992 30.2216 61.3797 29.824ZM48.3633 23.0102H57.5459L59.2338 29.7618H48.3633V23.0102ZM56.1482 18.6011C57.4018 18.6011 58.4217 19.621 58.4217 20.8746V20.9435H48.3633V18.6011H56.1482ZM18.6701 51.8078C16.2009 51.8078 14.1921 49.799 14.1921 47.3297C14.1921 44.8604 16.2009 42.8516 18.6701 42.8516C21.1393 42.8516 23.1482 44.8604 23.1482 47.3297C23.1482 49.799 21.1393 51.8078 18.6701 51.8078ZM55.0459 51.8078C52.5767 51.8078 50.5679 49.799 50.5679 47.3297C50.5679 44.8604 52.5767 42.8516 55.0459 42.8516C57.5151 42.8516 59.524 44.8604 59.524 47.3297C59.524 49.799 57.5151 51.8078 55.0459 51.8078ZM62.762 38.5802C62.1162 38.5802 61.5908 38.0548 61.5908 37.4089V36.2377H63.9331V38.58L62.762 38.5802Z" fill="black"/>
<path id="Vector_14" d="M18.6704 45.1938C17.4927 45.1938 16.5347 46.1519 16.5347 47.3296C16.5347 48.5073 17.4927 49.4653 18.6704 49.4653C19.8481 49.4653 20.8061 48.5073 20.8061 47.3296C20.8061 46.1519 19.8481 45.1938 18.6704 45.1938Z" fill="black"/>
<path id="Vector_15" d="M55.0459 45.1938C53.8682 45.1938 52.9102 46.1519 52.9102 47.3296C52.9102 48.5073 53.8682 49.4653 55.0459 49.4653C56.2236 49.4653 57.1816 48.5073 57.1816 47.3296C57.1816 46.1519 56.2236 45.1938 55.0459 45.1938Z" fill="black"/>
<path id="Vector_16" d="M26.4551 41.8181C26.4551 42.3888 26.9177 42.8516 27.4885 42.8516H42.9205C43.4912 42.8516 43.954 42.3889 43.954 41.8181C43.954 41.2474 43.4913 40.7847 42.9205 40.7847H27.4884C26.9177 40.7847 26.4551 41.2474 26.4551 41.8181Z" fill="black"/>
<path id="Vector_17" d="M3.23803 38.4429H16.4656C17.0363 38.4429 17.4991 37.9802 17.4991 37.4094C17.4991 36.8387 17.0364 36.376 16.4656 36.376H3.23803C2.66736 36.376 2.20459 36.8386 2.20459 37.4094C2.20459 37.9802 2.66736 38.4429 3.23803 38.4429Z" fill="black"/>
<path id="Vector_18" d="M34.4736 22.3485L25.2836 31.5384L20.5029 26.7576C20.0993 26.354 19.445 26.354 19.0415 26.7576C18.6379 27.1612 18.6379 27.8154 19.0415 28.219L24.553 33.7305C24.7547 33.9324 25.0192 34.0332 25.2836 34.0332C25.548 34.0332 25.8125 33.9324 26.0143 33.7305L35.9349 23.8099C36.3385 23.4063 36.3385 22.7521 35.9349 22.3485C35.5315 21.945 34.8771 21.945 34.4736 22.3485Z" fill="black"/>
</g>
</svg>
