<svg width="66" height="66" viewBox="0 0 66 66" fill="none" xmlns="http://www.w3.org/2000/svg">
<path d="M42.2869 20.1022C42.1316 20.1022 41.9763 20.0574 41.8415 19.9678L35.8186 15.9663C35.4496 15.7211 35.3499 15.2242 35.5959 14.8565C35.8419 14.4887 36.3405 14.3893 36.7095 14.6345L42.2869 18.3401L47.8643 14.6345C48.2333 14.3893 48.7319 14.4887 48.9779 14.8565C49.224 15.2242 49.1243 15.7211 48.7552 15.9663L42.7324 19.9678C42.5975 20.0574 42.4422 20.1022 42.2869 20.1022Z" fill="#422C77"/>
<path d="M58.3479 35.3079C57.9044 35.3079 57.5449 34.9495 57.5449 34.5075V13.2994C57.5449 11.9755 56.4642 10.8985 55.1357 10.8985H45.4992C44.1708 10.8985 43.09 11.9755 43.09 13.2994V19.3017C43.09 19.7437 42.7305 20.102 42.2869 20.102C41.8434 20.102 41.4839 19.7437 41.4839 19.3017V13.2994C41.4839 12.2305 41.9016 11.2257 42.6599 10.4699C43.4183 9.71408 44.4266 9.29785 45.4991 9.29785H55.1357C56.2082 9.29785 57.2165 9.71408 57.9749 10.4699C58.7333 11.2257 59.151 12.2305 59.151 13.2994V34.5075C59.151 34.9495 58.7915 35.3079 58.3479 35.3079Z" fill="#422C77"/>
<path d="M58.348 55.3152C57.9045 55.3152 57.5449 54.9569 57.5449 54.5149V42.5103C57.5449 42.0683 57.9045 41.71 58.348 41.71C58.7915 41.71 59.151 42.0683 59.151 42.5103V54.5149C59.151 54.9569 58.7915 55.3152 58.348 55.3152Z" fill="#422C77"/>
<path d="M18.1958 30.5065V12.0994C18.1958 10.9944 19.0946 10.0986 20.2034 10.0986H31.0446C32.1533 10.0986 33.0522 10.9944 33.0522 12.0994V30.5065H18.1958Z" fill="white"/>
<path d="M33.052 31.3063C32.6085 31.3063 32.249 30.948 32.249 30.506V12.0989C32.249 11.437 31.7086 10.8985 31.0444 10.8985H20.2032C19.539 10.8985 18.9987 11.437 18.9987 12.0989V30.506C18.9987 30.948 18.6391 31.3063 18.1956 31.3063C17.7521 31.3063 17.3926 30.948 17.3926 30.506V12.0989C17.3926 10.5544 18.6534 9.29785 20.2032 9.29785H31.0444C32.5942 9.29785 33.855 10.5544 33.855 12.0989V30.506C33.855 30.948 33.4955 31.3063 33.052 31.3063Z" fill="#422C77"/>
<path d="M33.0522 30.506V24.5037C33.0522 23.3987 33.9511 22.5029 35.0599 22.5029H46.7041C47.8128 22.5029 48.7117 23.3987 48.7117 24.5037V30.506H33.0522Z" fill="#FF8F80"/>
<path d="M48.7115 31.3058C48.268 31.3058 47.9085 30.9475 47.9085 30.5055V24.5032C47.9085 23.8413 47.3681 23.3028 46.7039 23.3028H35.0597C34.3955 23.3028 33.8551 23.8413 33.8551 24.5032V30.5055C33.8551 30.9475 33.4956 31.3058 33.0521 31.3058C32.6086 31.3058 32.249 30.9475 32.249 30.5055V24.5032C32.249 22.9587 33.5099 21.7021 35.0597 21.7021H46.7039C48.2537 21.7021 49.5146 22.9587 49.5146 24.5032V30.5055C49.5146 30.9475 49.155 31.3058 48.7115 31.3058Z" fill="#422C77"/>
<path d="M29.0367 16.1006H22.2108C21.7672 16.1006 21.4077 15.7423 21.4077 15.3003C21.4077 14.8583 21.7672 14.5 22.2108 14.5H29.0367C29.4802 14.5 29.8397 14.8583 29.8397 15.3003C29.8397 15.7423 29.4802 16.1006 29.0367 16.1006Z" fill="#422C77"/>
<path d="M29.0367 20.9024H22.2108C21.7672 20.9024 21.4077 20.5441 21.4077 20.1021C21.4077 19.6601 21.7672 19.3018 22.2108 19.3018H29.0367C29.4802 19.3018 29.8397 19.6601 29.8397 20.1021C29.8397 20.5441 29.4802 20.9024 29.0367 20.9024Z" fill="#422C77"/>
<path d="M29.0367 25.7041H22.2108C21.7672 25.7041 21.4077 25.3458 21.4077 24.9038C21.4077 24.4618 21.7672 24.1035 22.2108 24.1035H29.0367C29.4802 24.1035 29.8397 24.4618 29.8397 24.9038C29.8397 25.3458 29.4802 25.7041 29.0367 25.7041Z" fill="#422C77"/>
<path d="M15.7866 30.5068V52.5153C15.7866 53.6203 16.6855 54.5161 17.7942 54.5161H49.1131C50.2219 54.5161 51.1207 53.6203 51.1207 52.5153V30.5068H15.7866Z" fill="#FFDA8F"/>
<path d="M49.1129 55.3159H17.7941C16.2442 55.3159 14.9834 54.0593 14.9834 52.5148V30.5064C14.9834 30.0644 15.3429 29.7061 15.7864 29.7061C16.23 29.7061 16.5895 30.0644 16.5895 30.5064V52.5148C16.5895 53.1768 17.1299 53.7153 17.7941 53.7153H49.1129C49.7771 53.7153 50.3175 53.1768 50.3175 52.5148V30.5064C50.3175 30.0644 50.6771 29.7061 51.1206 29.7061C51.5641 29.7061 51.9236 30.0644 51.9236 30.5064V52.5148C51.9236 54.0593 50.6627 55.3159 49.1129 55.3159Z" fill="#422C77"/>
<path d="M26.2261 39.3102H8.55908L15.7865 30.5068H33.4536L26.2261 39.3102Z" fill="#FFDA8F"/>
<path d="M26.226 40.1101H8.55891C8.24862 40.1101 7.96611 39.9319 7.83322 39.6525C7.70035 39.373 7.74091 39.0423 7.93739 38.803L15.1648 29.9996C15.3173 29.8138 15.5455 29.7061 15.7863 29.7061H33.4534C33.7637 29.7061 34.0462 29.8842 34.1791 30.1637C34.312 30.4431 34.2714 30.7738 34.0749 31.0132L26.8475 39.8165C26.695 40.0023 26.4668 40.1101 26.226 40.1101ZM10.2535 38.5094H25.8454L31.7588 31.3067H16.1669L10.2535 38.5094Z" fill="#422C77"/>
<path d="M40.681 39.3102H58.3481L51.1207 30.5068H33.4536L40.681 39.3102Z" fill="#FFDA8F"/>
<path d="M58.3479 40.1101H40.6809C40.44 40.1101 40.2119 40.0023 40.0594 39.8165L32.8319 31.0132C32.6354 30.7738 32.5949 30.4431 32.7278 30.1637C32.8606 29.8842 33.1432 29.7061 33.4534 29.7061H51.1205C51.3614 29.7061 51.5895 29.8138 51.742 29.9996L58.9695 38.803C59.166 39.0423 59.2065 39.373 59.0736 39.6525C58.9408 39.9319 58.6582 40.1101 58.3479 40.1101ZM41.0614 38.5094H56.6533L50.74 31.3067H35.1481L41.0614 38.5094Z" fill="#422C77"/>
<path d="M33.4534 55.3163C33.0099 55.3163 32.6504 54.9579 32.6504 54.5159V37.7095C32.6504 37.2675 33.0099 36.9092 33.4534 36.9092C33.8969 36.9092 34.2565 37.2675 34.2565 37.7095V54.5159C34.2565 54.9579 33.8969 55.3163 33.4534 55.3163Z" fill="#422C77"/>
</svg>
