<svg width="66" height="66" viewBox="0 0 66 66" fill="none" xmlns="http://www.w3.org/2000/svg">
<g id="Frame 1686562532">
<g id="Group 1686562616">
<g id="g4678">
<g id="g4684">
<path id="path4686" d="M53.0993 4.00118H44.6466L44.0247 4.55515H38.738L38.1727 4.00118H29.72C28.8297 4.00118 28.1011 4.72961 28.1011 5.61997V28.9993C28.1011 29.8896 28.8297 30.6182 29.72 30.6182H53.0993C53.9896 30.6182 54.7182 29.8896 54.7182 28.9993V5.61997C54.7182 4.72961 53.9896 4.00118 53.0993 4.00118Z" fill="#FFDA8F"/>
</g>
<g id="g4688">
<path id="path4690" d="M33.8652 28.9993V5.62009C33.8652 4.72961 34.5937 4.00118 35.4841 4.00118H29.72C28.8297 4.00118 28.1011 4.72961 28.1011 5.62009V28.9993C28.1011 29.8897 28.8297 30.6182 29.72 30.6182H35.4841C34.5937 30.6182 33.8652 29.8897 33.8652 28.9993Z" fill="#DD9973"/>
</g>
<g id="g4692">
<path id="path4694" d="M38.1726 4.00072V14.2502C38.1726 14.7002 38.6723 14.9704 39.0488 14.724L41.0995 13.3821C41.2878 13.2588 41.5313 13.2588 41.7196 13.3821L43.7702 14.724C44.1467 14.9704 44.6465 14.7002 44.6465 14.2502V4.00072H38.1726Z" fill="#D6865F"/>
</g>
<g id="g4696">
<path id="path4698" d="M41.4095 4.00077H38.1726V14.2502C38.1726 14.7003 38.6723 14.9705 39.0488 14.724L41.0995 13.3822C41.1937 13.3204 41.3016 13.2896 41.4095 13.2896V4.00077Z" fill="#B97359"/>
</g>
<g id="g4700">
<path id="path4702" d="M38.817 18.5839H32.9688C32.1404 18.5839 31.4688 19.2555 31.4688 20.0841V26.04C31.4688 26.8684 32.1404 27.54 32.9688 27.54H38.817C39.6456 27.54 40.3172 26.8684 40.3172 26.04V20.0841C40.3172 19.2555 39.6456 18.5839 38.817 18.5839Z" fill="#FFEDDC"/>
</g>
<g id="g4704">
<path id="path4706" d="M35.8929 26.04V20.0841C35.8929 19.2555 36.5645 18.5839 37.393 18.5839H32.9688C32.1404 18.5839 31.4688 19.2555 31.4688 20.0841V26.04C31.4688 26.8684 32.1404 27.54 32.9688 27.54H37.393C36.5645 27.54 35.8929 26.8684 35.8929 26.04Z" fill="#FCD5AC"/>
</g>
<g id="g4708">
<path id="path4710" d="M56.2718 34.6728C54.9858 33.7532 53.209 34.0664 52.3034 35.3722L47.1098 42.8611C47.0423 42.9581 46.964 43.0449 46.8787 43.1236L46.7139 43.2602L47.0152 43.5615H48.411L57.2224 37.875L57.4766 37.3382C57.501 36.3681 57.0815 35.2517 56.2718 34.6728Z" fill="#FFCEBE"/>
</g>
<g id="g4712">
<path id="path4714" d="M55.5597 35.3722C55.7564 35.0885 55.9943 34.8518 56.2594 34.6643C54.9742 33.7555 53.2061 34.0705 52.3034 35.3722L47.1099 42.861C47.0425 42.9581 46.964 43.0448 46.8787 43.1235L46.7139 43.2602L47.0152 43.5615H48.4112L51.0707 41.845L55.5597 35.3722Z" fill="#FFB1A0"/>
</g>
<g id="g4716">
<path id="path4718" d="M60.0148 38.6143C59.1252 37.266 57.2975 36.9304 55.9858 37.8547L48.625 43.0408C48.2969 43.272 47.8966 43.3773 47.4971 43.3375L42.1105 42.8011C42.0724 42.7973 42.0698 42.7416 42.1078 42.7356C43.4523 42.5217 44.5504 41.4466 44.7227 40.0326C44.9263 38.3617 43.7598 36.8318 42.0877 36.5762L29.4319 34.6411C28.0006 34.4222 26.5397 34.7652 25.3579 35.5979L18.5954 40.3625L18.2229 41.7002L24.9271 51.3008H26.3428C29.0737 49.7381 32.1836 48.9226 35.3539 48.9613C36.6357 48.9769 45.4576 49.0844 46.7578 49.1002C48.7157 49.1489 50.6368 48.5668 52.2352 47.4409L59.2226 42.5177C60.4828 41.6298 60.862 39.8987 60.0148 38.6143Z" fill="#FFDECF"/>
</g>
<g id="g4720">
<path id="path4722" d="M24.8221 42.3482C24.5355 41.9379 24.4473 41.4209 24.5815 40.9387C24.6854 40.5661 24.9148 40.2408 25.231 40.0181L31.5046 35.598C31.7833 35.4016 32.0781 35.2335 32.3839 35.0924L29.4319 34.6411C28.0006 34.4223 26.5397 34.7652 25.3579 35.598L18.5954 40.3626L18.2229 41.7002L24.9271 51.3008H26.3428C27.495 50.6415 28.715 50.117 29.9781 49.7318L24.8221 42.3482Z" fill="#FFCEBE"/>
</g>
<g id="g4724">
<path id="path4726" d="M27.1359 52.4203L17.7714 39.1991C17.363 38.6226 16.5588 38.4906 15.9747 38.9042L13.2429 40.8392V42.0117L23.1648 55.7267L24.086 56.1479L26.8178 54.213C27.4017 53.7995 27.5442 52.9968 27.1359 52.4203Z" fill="#DBEDFF"/>
</g>
<g id="g4728">
<path id="path4730" d="M19.141 41.1338L17.7715 39.2004C17.3632 38.6239 16.5589 38.4918 15.9748 38.9055L13.2432 40.8404V42.0129L14.8208 44.1938L19.141 41.1338Z" fill="#B5DCFF"/>
</g>
<g id="g4732">
<path id="path4734" d="M13.243 40.8393L6.57579 45.5616C5.98011 45.9835 5.82817 46.7929 6.23652 47.3693L15.6011 60.5905C16.0094 61.1669 16.8232 61.2922 17.4189 60.8704L24.0861 56.1481L13.243 40.8393Z" fill="#7FB3FA"/>
</g>
<g id="g4736">
<path id="path4738" d="M11.4958 48.1152C11.0874 47.5387 11.3124 46.6776 11.9981 46.1919L15.3518 43.8166L13.2429 40.8393L6.57574 45.5617C5.98006 45.9836 5.82824 46.7929 6.23647 47.3693L15.6011 60.5905C16.0093 61.167 16.8232 61.2922 17.4188 60.8703L19.4907 59.4029L11.4958 48.1152Z" fill="#64A6F4"/>
</g>
<g id="g4740">
<path id="path4742" d="M34.0774 24.5039H37.6939" stroke="#422C77" stroke-width="1.19527" stroke-miterlimit="10" stroke-linecap="round" stroke-linejoin="round"/>
</g>
<g id="g4744">
<path id="path4746" d="M34.0774 21.6187H37.6939" stroke="#422C77" stroke-width="1.19527" stroke-miterlimit="10" stroke-linecap="round" stroke-linejoin="round"/>
</g>
<g id="g4748">
<path id="path4750" d="M38.8098 18.5839H32.9616C32.1331 18.5839 31.4614 19.2555 31.4614 20.0841V26.04C31.4614 26.8684 32.1331 27.54 32.9616 27.54H38.8098C39.6383 27.54 40.31 26.8684 40.31 26.04V20.0841C40.31 19.2555 39.6383 18.5839 38.8098 18.5839Z" stroke="#422C77" stroke-width="1.19527" stroke-miterlimit="10" stroke-linecap="round" stroke-linejoin="round"/>
</g>
<g id="g4752">
<path id="path4754" d="M13.2356 40.8393L6.56836 45.5616C5.97279 45.9835 5.82086 46.7929 6.2292 47.3693L15.5938 60.5905C16.002 61.1669 16.8159 61.2922 17.4115 60.8704L24.0787 56.1481L13.2356 40.8393Z" stroke="#422C77" stroke-width="1.19527" stroke-miterlimit="10" stroke-linecap="round" stroke-linejoin="round"/>
</g>
<g id="g4756">
<path id="path4758" d="M27.1287 52.4203L17.7642 39.1991C17.3558 38.6226 16.5514 38.4906 15.9675 38.9042L13.2356 40.8392L24.0788 56.1479L26.8106 54.213C27.3945 53.7995 27.537 52.9968 27.1287 52.4203Z" stroke="#422C77" stroke-width="1.19527" stroke-miterlimit="10" stroke-linecap="round" stroke-linejoin="round"/>
</g>
<g id="g4760">
<path id="path4762" d="M47.4886 43.3385C47.8885 43.3782 48.2896 43.2729 48.6176 43.0418L55.9784 37.8556C56.4335 37.5349 56.9507 37.3663 57.4693 37.3386C57.4938 36.3684 57.074 35.2521 56.2645 34.6732C54.9784 33.7536 53.2017 34.0667 52.296 35.3725L47.1025 42.8615C46.9935 43.0184 46.8581 43.1509 46.7065 43.2605L47.4886 43.3385Z" stroke="#422C77" stroke-width="1.19527" stroke-miterlimit="10" stroke-linecap="round" stroke-linejoin="round"/>
</g>
<g id="g4764">
<path id="path4766" d="M42.8134 42.8721L36.8777 42.398" stroke="#422C77" stroke-width="1.19527" stroke-miterlimit="10" stroke-linecap="round" stroke-linejoin="round"/>
</g>
<g id="g4768">
<path id="path4770" d="M60.0073 38.6143C59.1178 37.266 57.2901 36.9304 55.9784 37.8547L48.6176 43.0408C48.2895 43.272 47.8892 43.3773 47.4897 43.3375L41.7849 42.7695C43.2699 42.6856 44.5297 41.5556 44.7152 40.0326C44.9189 38.3617 43.7524 36.8318 42.0803 36.5762L29.4245 34.6411C27.9932 34.4222 26.5323 34.7652 25.3505 35.5979L18.5879 40.3625L26.3354 51.3008C29.0663 49.7381 32.1761 48.9226 35.3465 48.9613C36.6282 48.9769 45.4502 49.0844 46.7504 49.1002C48.7083 49.1489 50.6294 48.5668 52.2277 47.4409L59.2152 42.5177C60.4754 41.6298 60.8547 39.8987 60.0073 38.6143Z" stroke="#422C77" stroke-width="1.19527" stroke-miterlimit="10" stroke-linecap="round" stroke-linejoin="round"/>
</g>
<g id="g4772">
<path id="path4774" d="M43.4136 30.6182H53.0919C53.9822 30.6182 54.7108 29.8896 54.7108 28.9993V5.61997C54.7108 4.72961 53.9822 4.00118 53.0919 4.00118H29.7127C28.8223 4.00118 28.0938 4.72961 28.0938 5.61997V28.9993C28.0938 29.8896 28.8223 30.6182 29.7127 30.6182H39.391" stroke="#422C77" stroke-width="1.19527" stroke-miterlimit="10" stroke-linecap="round" stroke-linejoin="round"/>
</g>
<g id="g4776">
<path id="path4778" d="M44.6392 6.95222V4.0007H38.1653V14.2502C38.1653 14.7003 38.6651 14.9704 39.0416 14.724L41.0922 13.3821C41.2806 13.2589 41.524 13.2589 41.7123 13.3821L43.7629 14.724C44.1395 14.9704 44.6392 14.7003 44.6392 14.2502V10.9748" stroke="#422C77" stroke-width="1.19527" stroke-miterlimit="10" stroke-linecap="round" stroke-linejoin="round"/>
</g>
</g>
</g>
</g>
</svg>
